<svg id="visual" viewBox="0 0 960 300" width="960" height="300" xmlns="http://www.w3.org/2000/svg" xmlns:xlink="http://www.w3.org/1999/xlink" version="1.1"><rect x="0" y="0" width="960" height="300" fill="#FFFAF5"></rect><path d="M0 217L22.8 211.3C45.7 205.7 91.3 194.3 137 195.5C182.7 196.7 228.3 210.3 274 210C319.7 209.7 365.3 195.3 411.2 190.8C457 186.3 503 191.7 548.8 197.5C594.7 203.3 640.3 209.7 686 212C731.7 214.3 777.3 212.7 823 214C868.7 215.3 914.3 219.7 937.2 221.8L960 224L960 301L937.2 301C914.3 301 868.7 301 823 301C777.3 301 731.7 301 686 301C640.3 301 594.7 301 548.8 301C503 301 457 301 411.2 301C365.3 301 319.7 301 274 301C228.3 301 182.7 301 137 301C91.3 301 45.7 301 22.8 301L0 301Z" fill="#11106a"></path><path d="M0 213L22.8 211.7C45.7 210.3 91.3 207.7 137 209.7C182.7 211.7 228.3 218.3 274 222C319.7 225.7 365.3 226.3 411.2 222.3C457 218.3 503 209.7 548.8 206.8C594.7 204 640.3 207 686 212.5C731.7 218 777.3 226 823 228.3C868.7 230.7 914.3 227.3 937.2 225.7L960 224L960 301L937.2 301C914.3 301 868.7 301 823 301C777.3 301 731.7 301 686 301C640.3 301 594.7 301 548.8 301C503 301 457 301 411.2 301C365.3 301 319.7 301 274 301C228.3 301 182.7 301 137 301C91.3 301 45.7 301 22.8 301L0 301Z" fill="#0b105c"></path><path d="M0 227L22.8 231C45.7 235 91.3 243 137 241.5C182.7 240 228.3 229 274 227.5C319.7 226 365.3 234 411.2 235C457 236 503 230 548.8 228.2C594.7 226.3 640.3 228.7 686 232.2C731.7 235.7 777.3 240.3 823 243.3C868.7 246.3 914.3 247.7 937.2 248.3L960 249L960 301L937.2 301C914.3 301 868.7 301 823 301C777.3 301 731.7 301 686 301C640.3 301 594.7 301 548.8 301C503 301 457 301 411.2 301C365.3 301 319.7 301 274 301C228.3 301 182.7 301 137 301C91.3 301 45.7 301 22.8 301L0 301Z" fill="#070f4f"></path><path d="M0 258L22.8 255C45.7 252 91.3 246 137 245.2C182.7 244.3 228.3 248.7 274 249.2C319.7 249.7 365.3 246.3 411.2 249.3C457 252.3 503 261.7 548.8 262.8C594.7 264 640.3 257 686 256C731.7 255 777.3 260 823 262.7C868.7 265.3 914.3 265.7 937.2 265.8L960 266L960 301L937.2 301C914.3 301 868.7 301 823 301C777.3 301 731.7 301 686 301C640.3 301 594.7 301 548.8 301C503 301 457 301 411.2 301C365.3 301 319.7 301 274 301C228.3 301 182.7 301 137 301C91.3 301 45.7 301 22.8 301L0 301Z" fill="#070d41"></path><path d="M0 271L22.8 270C45.7 269 91.3 267 137 268.7C182.7 270.3 228.3 275.7 274 278C319.7 280.3 365.3 279.7 411.2 277C457 274.3 503 269.7 548.8 267C594.7 264.3 640.3 263.7 686 266C731.7 268.3 777.3 273.7 823 276.3C868.7 279 914.3 279 937.2 279L960 279L960 301L937.2 301C914.3 301 868.7 301 823 301C777.3 301 731.7 301 686 301C640.3 301 594.7 301 548.8 301C503 301 457 301 411.2 301C365.3 301 319.7 301 274 301C228.3 301 182.7 301 137 301C91.3 301 45.7 301 22.8 301L0 301Z" fill="#090834"></path></svg>